<svg xmlns="http://www.w3.org/2000/svg" viewBox="0 0 512 512">
  <rect width="512" height="512" rx="64" fill="#C53030"/>
  <!-- Dither-style dot pattern background -->
  <g fill="#fff" opacity="0.15">
    <rect x="32" y="32" width="32" height="32"/>
    <rect x="96" y="32" width="32" height="32"/>
    <rect x="160" y="32" width="32" height="32"/>
    <rect x="224" y="32" width="32" height="32"/>
    <rect x="288" y="32" width="32" height="32"/>
    <rect x="352" y="32" width="32" height="32"/>
    <rect x="416" y="32" width="32" height="32"/>
    <rect x="64" y="64" width="32" height="32"/>
    <rect x="128" y="64" width="32" height="32"/>
    <rect x="192" y="64" width="32" height="32"/>
    <rect x="256" y="64" width="32" height="32"/>
    <rect x="320" y="64" width="32" height="32"/>
    <rect x="384" y="64" width="32" height="32"/>
    <rect x="448" y="64" width="32" height="32"/>
    <rect x="32" y="384" width="32" height="32"/>
    <rect x="96" y="384" width="32" height="32"/>
    <rect x="160" y="384" width="32" height="32"/>
    <rect x="224" y="384" width="32" height="32"/>
    <rect x="288" y="384" width="32" height="32"/>
    <rect x="352" y="384" width="32" height="32"/>
    <rect x="416" y="384" width="32" height="32"/>
    <rect x="64" y="416" width="32" height="32"/>
    <rect x="128" y="416" width="32" height="32"/>
    <rect x="192" y="416" width="32" height="32"/>
    <rect x="256" y="416" width="32" height="32"/>
    <rect x="320" y="416" width="32" height="32"/>
    <rect x="384" y="416" width="32" height="32"/>
    <rect x="448" y="416" width="32" height="32"/>
    <rect x="32" y="448" width="32" height="32"/>
    <rect x="96" y="448" width="32" height="32"/>
    <rect x="160" y="448" width="32" height="32"/>
    <rect x="224" y="448" width="32" height="32"/>
    <rect x="288" y="448" width="32" height="32"/>
    <rect x="352" y="448" width="32" height="32"/>
    <rect x="416" y="448" width="32" height="32"/>
  </g>
  <!-- "D!" text -->
  <text x="256" y="310" font-family="Arial Black, Arial, sans-serif" font-weight="900" font-size="280" fill="#fff" text-anchor="middle" dominant-baseline="central">D!</text>
</svg>
